<svg width="95" height="21" viewBox="0 0 95 21" fill="none" xmlns="http://www.w3.org/2000/svg">
<path d="M0.616 14.504L6.292 8.476C6.76133 7.97733 7.14267 7.53 7.436 7.134C7.72933 6.738 7.942 6.364 8.074 6.012C8.206 5.66 8.272 5.30067 8.272 4.934C8.272 4.24467 8.04467 3.70933 7.59 3.328C7.15 2.932 6.58533 2.734 5.896 2.734C5.16267 2.734 4.51733 2.91733 3.96 3.284C3.40267 3.65067 2.904 4.22267 2.464 5L0.704 3.548C1.30533 2.50667 2.046 1.722 2.926 1.194C3.806 0.651332 4.82533 0.379999 5.984 0.379999C6.93733 0.379999 7.77333 0.570666 8.492 0.952C9.21067 1.33333 9.768 1.86867 10.164 2.558C10.56 3.23267 10.758 4.01733 10.758 4.912C10.758 5.55733 10.6773 6.13667 10.516 6.65C10.3693 7.14867 10.1127 7.65467 9.746 8.168C9.37933 8.66667 8.87333 9.25333 8.228 9.928L3.872 14.438L0.616 14.504ZM0.616 16V14.504L2.794 13.734H11.066V16H0.616ZM12.5183 14.504L18.1943 8.476C18.6637 7.97733 19.045 7.53 19.3383 7.134C19.6317 6.738 19.8443 6.364 19.9763 6.012C20.1083 5.66 20.1743 5.30067 20.1743 4.934C20.1743 4.24467 19.947 3.70933 19.4923 3.328C19.0523 2.932 18.4877 2.734 17.7983 2.734C17.065 2.734 16.4197 2.91733 15.8623 3.284C15.305 3.65067 14.8063 4.22267 14.3663 5L12.6063 3.548C13.2077 2.50667 13.9483 1.722 14.8283 1.194C15.7083 0.651332 16.7277 0.379999 17.8863 0.379999C18.8397 0.379999 19.6757 0.570666 20.3943 0.952C21.113 1.33333 21.6703 1.86867 22.0663 2.558C22.4623 3.23267 22.6603 4.01733 22.6603 4.912C22.6603 5.55733 22.5797 6.13667 22.4183 6.65C22.2717 7.14867 22.015 7.65467 21.6483 8.168C21.2817 8.66667 20.7757 9.25333 20.1303 9.928L15.7743 14.438L12.5183 14.504ZM12.5183 16V14.504L14.6963 13.734H22.9683V16H12.5183ZM26.9947 16.22C26.5254 16.22 26.1367 16.066 25.8287 15.758C25.5354 15.4353 25.3887 15.0467 25.3887 14.592C25.3887 14.1227 25.5354 13.734 25.8287 13.426C26.1367 13.118 26.5254 12.964 26.9947 12.964C27.464 12.964 27.8454 13.118 28.1387 13.426C28.4467 13.734 28.6007 14.1227 28.6007 14.592C28.6007 15.0467 28.4467 15.4353 28.1387 15.758C27.8454 16.066 27.464 16.22 26.9947 16.22ZM35.5843 16.22C34.631 16.22 33.7656 15.978 32.9883 15.494C32.2256 15.01 31.617 14.3573 31.1623 13.536C30.7223 12.7 30.5023 11.7687 30.5023 10.742C30.5023 9.70067 30.7223 8.76933 31.1623 7.948C31.617 7.112 32.2256 6.452 32.9883 5.968C33.7656 5.46933 34.631 5.22 35.5843 5.22C36.391 5.22 37.1023 5.396 37.7183 5.748C38.349 6.08533 38.8476 6.55467 39.2143 7.156C39.581 7.75733 39.7643 8.43933 39.7643 9.202V12.238C39.7643 13.0007 39.581 13.6827 39.2143 14.284C38.8623 14.8853 38.371 15.362 37.7403 15.714C37.1096 16.0513 36.391 16.22 35.5843 16.22ZM35.9803 13.932C36.5816 13.932 37.1023 13.8 37.5423 13.536C37.997 13.2573 38.349 12.876 38.5983 12.392C38.8476 11.908 38.9723 11.3507 38.9723 10.72C38.9723 10.0893 38.8476 9.532 38.5983 9.048C38.349 8.564 37.997 8.19 37.5423 7.926C37.1023 7.64733 36.5816 7.508 35.9803 7.508C35.3936 7.508 34.873 7.64733 34.4183 7.926C33.9783 8.19 33.6263 8.564 33.3623 9.048C33.113 9.532 32.9883 10.0893 32.9883 10.72C32.9883 11.3507 33.113 11.908 33.3623 12.392C33.6263 12.876 33.9783 13.2573 34.4183 13.536C34.873 13.8 35.3936 13.932 35.9803 13.932ZM41.2383 16H38.8183V13.162L39.2363 10.588L38.8183 8.036V0.159999H41.2383V16ZM48.83 16.22C47.774 16.22 46.8207 15.9853 45.97 15.516C45.134 15.032 44.4667 14.372 43.968 13.536C43.484 12.7 43.242 11.7613 43.242 10.72C43.242 9.67867 43.484 8.74733 43.968 7.926C44.452 7.09 45.1047 6.43 45.926 5.946C46.762 5.462 47.686 5.22 48.698 5.22C49.6807 5.22 50.546 5.44733 51.294 5.902C52.0567 6.35667 52.6507 6.98 53.076 7.772C53.516 8.564 53.736 9.466 53.736 10.478C53.736 10.654 53.7214 10.8373 53.692 11.028C53.6774 11.204 53.648 11.402 53.604 11.622H44.936V9.642H52.35L51.448 10.434C51.4187 9.78867 51.294 9.246 51.074 8.806C50.854 8.366 50.5387 8.02867 50.128 7.794C49.732 7.55933 49.2407 7.442 48.654 7.442C48.038 7.442 47.5027 7.574 47.048 7.838C46.5934 8.102 46.2414 8.476 45.992 8.96C45.7427 9.42933 45.618 9.994 45.618 10.654C45.618 11.314 45.75 11.8933 46.014 12.392C46.278 12.8907 46.652 13.2793 47.136 13.558C47.62 13.822 48.1774 13.954 48.808 13.954C49.3507 13.954 49.8494 13.8587 50.304 13.668C50.7734 13.4773 51.1694 13.1987 51.492 12.832L53.032 14.394C52.5187 14.9953 51.8954 15.45 51.162 15.758C50.4287 16.066 49.6514 16.22 48.83 16.22ZM59.0681 16L54.2501 5.44H56.9341L60.6081 14.042H59.0241L62.7201 5.44H65.2941L60.4761 16H59.0681ZM66.719 16V0.159999H69.139V16H66.719ZM76.6722 16.22C75.6456 16.22 74.7142 15.978 73.8782 15.494C73.0422 14.9953 72.3749 14.328 71.8762 13.492C71.3922 12.656 71.1502 11.7247 71.1502 10.698C71.1502 9.67133 71.3922 8.74733 71.8762 7.926C72.3749 7.10467 73.0422 6.452 73.8782 5.968C74.7142 5.46933 75.6456 5.22 76.6722 5.22C77.7136 5.22 78.6522 5.462 79.4882 5.946C80.3242 6.43 80.9842 7.09 81.4682 7.926C81.9669 8.74733 82.2162 9.67133 82.2162 10.698C82.2162 11.7247 81.9669 12.656 81.4682 13.492C80.9842 14.328 80.3242 14.9953 79.4882 15.494C78.6522 15.978 77.7136 16.22 76.6722 16.22ZM76.6722 13.888C77.2736 13.888 77.8016 13.756 78.2562 13.492C78.7256 13.2133 79.0849 12.832 79.3342 12.348C79.5982 11.864 79.7302 11.314 79.7302 10.698C79.7302 10.082 79.5982 9.53933 79.3342 9.07C79.0702 8.60067 78.7109 8.234 78.2562 7.97C77.8016 7.69133 77.2736 7.552 76.6722 7.552C76.0856 7.552 75.5576 7.69133 75.0882 7.97C74.6336 8.234 74.2742 8.60067 74.0102 9.07C73.7609 9.53933 73.6362 10.082 73.6362 10.698C73.6362 11.314 73.7609 11.864 74.0102 12.348C74.2742 12.832 74.6336 13.2133 75.0882 13.492C75.5576 13.756 76.0856 13.888 76.6722 13.888ZM88.6287 20.62C87.5141 20.62 86.5387 20.4147 85.7027 20.004C84.8667 19.608 84.1921 19.0433 83.6787 18.31L85.2627 16.726C85.6881 17.254 86.1721 17.65 86.7147 17.914C87.2574 18.178 87.9101 18.31 88.6727 18.31C89.6261 18.31 90.3814 18.0607 90.9387 17.562C91.4961 17.078 91.7747 16.4107 91.7747 15.56V12.964L92.1927 10.632L91.7747 8.278V5.44H94.1947V15.56C94.1947 16.572 93.9601 17.452 93.4907 18.2C93.0214 18.9627 92.3687 19.5567 91.5327 19.982C90.6967 20.4073 89.7287 20.62 88.6287 20.62ZM88.5187 15.78C87.5801 15.78 86.7294 15.5527 85.9667 15.098C85.2187 14.6287 84.6247 13.9907 84.1847 13.184C83.7594 12.3773 83.5467 11.4753 83.5467 10.478C83.5467 9.48067 83.7594 8.586 84.1847 7.794C84.6247 7.002 85.2187 6.37867 85.9667 5.924C86.7294 5.45467 87.5801 5.22 88.5187 5.22C89.3547 5.22 90.0881 5.38867 90.7187 5.726C91.3494 6.06333 91.8407 6.53267 92.1927 7.134C92.5447 7.72067 92.7207 8.41 92.7207 9.202V11.798C92.7207 12.5753 92.5374 13.2647 92.1707 13.866C91.8187 14.4673 91.3274 14.9367 90.6967 15.274C90.0661 15.6113 89.3401 15.78 88.5187 15.78ZM89.0027 13.492C89.5894 13.492 90.1027 13.3673 90.5427 13.118C90.9827 12.8687 91.3201 12.524 91.5547 12.084C91.8041 11.6293 91.9287 11.1013 91.9287 10.5C91.9287 9.89867 91.8041 9.378 91.5547 8.938C91.3201 8.48333 90.9827 8.13133 90.5427 7.882C90.1027 7.63267 89.5894 7.508 89.0027 7.508C88.4161 7.508 87.8954 7.63267 87.4407 7.882C87.0007 8.13133 86.6561 8.48333 86.4067 8.938C86.1574 9.378 86.0327 9.89867 86.0327 10.5C86.0327 11.0867 86.1574 11.6073 86.4067 12.062C86.6561 12.5167 87.0007 12.8687 87.4407 13.118C87.8954 13.3673 88.4161 13.492 89.0027 13.492Z" fill="current"/>
</svg>
