<svg width="103" height="27" viewBox="0 0 103 27" fill="none" xmlns="http://www.w3.org/2000/svg">
<path d="M6.734 19.406C6.734 19.6553 6.646 19.868 6.47 20.044C6.294 20.22 6.08133 20.308 5.832 20.308C5.58267 20.308 5.36267 20.22 5.172 20.044C4.996 19.868 4.908 19.6553 4.908 19.406V5.15L2.048 7.702C1.85733 7.86333 1.65933 7.944 1.454 7.944C1.20467 7.944 0.984667 7.856 0.794 7.68C0.618 7.504 0.53 7.29133 0.53 7.042C0.53 6.91 0.559333 6.778 0.618 6.646C0.691333 6.514 0.772 6.41133 0.86 6.338L5.326 2.356C5.53133 2.18 5.73667 2.092 5.942 2.092C6.17667 2.092 6.36733 2.17267 6.514 2.334C6.66067 2.49533 6.734 2.71533 6.734 2.994V19.406ZM23.2575 18.614C23.4335 18.7607 23.5215 18.9807 23.5215 19.274C23.5215 19.5087 23.4335 19.714 23.2575 19.89C23.0962 20.066 22.8909 20.154 22.6415 20.154C22.4215 20.154 22.2162 20.0733 22.0255 19.912L15.7775 14.324L15.7555 19.23C15.7555 19.5087 15.6602 19.7287 15.4695 19.89C15.2789 20.0513 15.0735 20.132 14.8535 20.132C14.5895 20.132 14.3769 20.0513 14.2155 19.89C14.0689 19.714 13.9955 19.494 13.9955 19.23C13.9955 17.6753 14.0102 15.38 14.0395 12.344C14.0689 9.29333 14.0982 6.316 14.1275 3.412C14.1422 3.13333 14.0909 2.84 13.9735 2.532C13.8709 2.224 13.7389 2.01867 13.5775 1.916C13.3722 1.784 13.2182 1.65933 13.1155 1.542C13.0129 1.41 12.9615 1.24867 12.9615 1.058C12.9615 0.823332 13.0569 0.639999 13.2475 0.507999C13.4382 0.375999 13.6655 0.309999 13.9295 0.309999C14.5162 0.309999 14.9855 0.566666 15.3375 1.08C15.7042 1.59333 15.8875 2.312 15.8875 3.236C15.8875 4.072 15.8729 5.66333 15.8435 8.01C15.8142 9.79933 15.7995 11.156 15.7995 12.08L22.0475 8.67C22.2235 8.582 22.3702 8.538 22.4875 8.538C22.7369 8.538 22.9422 8.626 23.1035 8.802C23.2795 8.96333 23.3675 9.16867 23.3675 9.418C23.3675 9.56467 23.3235 9.71133 23.2355 9.858C23.1622 9.99 23.0669 10.0927 22.9495 10.166L17.1635 13.268L23.2575 18.614ZM28.3408 1.41C28.3114 2.80333 28.2748 5.26 28.2308 8.78C28.2014 12.2853 28.1868 15.1233 28.1868 17.294C28.1868 17.5727 28.2454 17.8587 28.3628 18.152C28.4801 18.4307 28.6121 18.6213 28.7588 18.724C28.9641 18.856 29.1181 18.988 29.2208 19.12C29.3234 19.2373 29.3748 19.3913 29.3748 19.582C29.3748 19.8167 29.2794 20 29.0888 20.132C28.8981 20.264 28.6708 20.33 28.4068 20.33C27.8201 20.33 27.3361 20.066 26.9548 19.538C26.5881 18.9953 26.4048 18.2327 26.4048 17.25C26.4928 7.29133 26.5514 2.01133 26.5808 1.41C26.5954 1.08733 26.6761 0.845333 26.8228 0.684C26.9694 0.507999 27.1748 0.419999 27.4388 0.419999C27.7028 0.419999 27.9154 0.522666 28.0768 0.727999C28.2528 0.933332 28.3408 1.16067 28.3408 1.41ZM37.0839 20.396C36.0132 20.396 35.0525 20.1393 34.2019 19.626C33.3512 19.1127 32.6912 18.4087 32.2219 17.514C31.7525 16.6047 31.5179 15.5853 31.5179 14.456C31.5179 13.3267 31.7525 12.3147 32.2219 11.42C32.6912 10.5253 33.3512 9.82133 34.2019 9.308C35.0525 8.79467 36.0132 8.538 37.0839 8.538C38.1545 8.538 39.1152 8.79467 39.9659 9.308C40.8165 9.82133 41.4765 10.5253 41.9459 11.42C42.4152 12.3147 42.6499 13.3267 42.6499 14.456C42.6499 15.5853 42.4152 16.6047 41.9459 17.514C41.4765 18.4087 40.8165 19.1127 39.9659 19.626C39.1152 20.1393 38.1545 20.396 37.0839 20.396ZM37.0839 18.636C37.8319 18.636 38.4919 18.46 39.0639 18.108C39.6359 17.7413 40.0832 17.2427 40.4059 16.612C40.7285 15.9813 40.8899 15.2627 40.8899 14.456C40.8899 13.6493 40.7285 12.9307 40.4059 12.3C40.0832 11.6693 39.6359 11.178 39.0639 10.826C38.4919 10.474 37.8319 10.298 37.0839 10.298C36.3359 10.298 35.6685 10.474 35.0819 10.826C34.5099 11.178 34.0625 11.6693 33.7399 12.3C33.4319 12.9307 33.2779 13.6493 33.2779 14.456C33.2779 15.2627 33.4319 15.9813 33.7399 16.612C34.0625 17.2427 34.5099 17.7413 35.0819 18.108C35.6685 18.46 36.3359 18.636 37.0839 18.636ZM55.6668 8.868C55.8721 8.912 56.0335 9.01467 56.1508 9.176C56.2828 9.33733 56.3488 9.528 56.3488 9.748C56.3488 9.98267 56.2828 10.1807 56.1508 10.342C56.0188 10.4887 55.8355 10.562 55.6008 10.562C55.5275 10.562 55.4248 10.54 55.2928 10.496C55.2488 10.4813 55.1241 10.474 54.9188 10.474C54.5228 10.5033 54.2221 10.6207 54.0168 10.826C54.4421 11.5153 54.6548 12.2927 54.6548 13.158C54.6548 13.994 54.4495 14.7567 54.0388 15.446C53.6281 16.1207 53.0635 16.656 52.3448 17.052C51.6261 17.448 50.8195 17.6607 49.9248 17.69C49.5875 17.69 49.2941 17.7853 49.0448 17.976C48.8101 18.152 48.6928 18.35 48.6928 18.57C48.6928 18.7753 48.8175 18.9587 49.0668 19.12C49.3308 19.2667 49.7048 19.3693 50.1888 19.428C51.3915 19.5893 52.3375 19.7873 53.0268 20.022C53.7161 20.2713 54.2148 20.594 54.5228 20.99C54.8455 21.4007 55.0068 21.9287 55.0068 22.574C55.0068 23.322 54.7795 23.982 54.3248 24.554C53.8701 25.126 53.2468 25.566 52.4548 25.874C51.6628 26.182 50.7828 26.336 49.8148 26.336C48.6855 26.336 47.6515 26.1087 46.7128 25.654C45.7888 25.214 45.0628 24.5687 44.5348 23.718C44.4468 23.586 44.4028 23.432 44.4028 23.256C44.4028 23.0213 44.4835 22.8233 44.6448 22.662C44.8208 22.5007 45.0335 22.42 45.2828 22.42C45.5615 22.42 45.7888 22.5373 45.9648 22.772C46.3021 23.3 46.8375 23.74 47.5708 24.092C48.3041 24.4587 49.0668 24.642 49.8588 24.642C50.8561 24.642 51.6921 24.4587 52.3668 24.092C53.0415 23.74 53.3788 23.256 53.3788 22.64C53.3788 22.3027 53.2688 22.0313 53.0488 21.826C52.8288 21.6207 52.4988 21.4593 52.0588 21.342C51.6335 21.2247 51.0175 21.1 50.2108 20.968C49.0081 20.7773 48.1428 20.506 47.6148 20.154C47.1015 19.8167 46.8448 19.3473 46.8448 18.746C46.8448 18.174 47.1821 17.712 47.8568 17.36C46.9475 17.0373 46.2141 16.502 45.6568 15.754C45.1141 14.9913 44.8428 14.126 44.8428 13.158C44.8428 12.2927 45.0555 11.508 45.4808 10.804C45.9061 10.1 46.4928 9.55 47.2408 9.154C47.9888 8.74333 48.8248 8.538 49.7488 8.538C50.3648 8.538 50.9441 8.63333 51.4868 8.824C52.0441 9 52.5355 9.264 52.9608 9.616C53.2395 9.352 53.5621 9.154 53.9288 9.022C54.3101 8.87533 54.6915 8.802 55.0728 8.802C55.2781 8.802 55.4761 8.824 55.6668 8.868ZM49.7488 15.996C50.3355 15.996 50.8708 15.8713 51.3548 15.622C51.8388 15.3727 52.2128 15.0353 52.4768 14.61C52.7555 14.17 52.8948 13.686 52.8948 13.158C52.8948 12.3367 52.5941 11.6473 51.9928 11.09C51.3915 10.5327 50.6435 10.254 49.7488 10.254C49.1621 10.254 48.6268 10.386 48.1428 10.65C47.6588 10.8993 47.2775 11.244 46.9988 11.684C46.7348 12.124 46.6028 12.6153 46.6028 13.158C46.6028 13.686 46.7348 14.17 46.9988 14.61C47.2775 15.0353 47.6588 15.3727 48.1428 15.622C48.6268 15.8713 49.1621 15.996 49.7488 15.996ZM60.1913 20.242C59.8246 20.242 59.5166 20.1173 59.2673 19.868C59.0179 19.604 58.8933 19.296 58.8933 18.944C58.8933 18.592 59.0179 18.2913 59.2673 18.042C59.5166 17.7927 59.8246 17.668 60.1913 17.668C60.5286 17.668 60.8219 17.7927 61.0713 18.042C61.3353 18.2913 61.4673 18.592 61.4673 18.944C61.4673 19.296 61.3426 19.604 61.0933 19.868C60.8439 20.1173 60.5433 20.242 60.1913 20.242ZM76.5063 18.724C76.7116 18.856 76.8656 18.988 76.9683 19.12C77.071 19.2373 77.1223 19.3913 77.1223 19.582C77.1223 19.8167 77.0196 20 76.8143 20.132C76.6236 20.264 76.3963 20.33 76.1323 20.33C75.6776 20.33 75.289 20.176 74.9663 19.868C74.6436 19.56 74.4163 19.1127 74.2843 18.526C73.8003 19.098 73.2136 19.538 72.5243 19.846C71.8496 20.154 71.1236 20.308 70.3463 20.308C69.2463 20.308 68.2563 20.0513 67.3763 19.538C66.511 19.0247 65.829 18.3133 65.3303 17.404C64.8316 16.4947 64.5823 15.468 64.5823 14.324C64.5823 13.224 64.8316 12.2267 65.3303 11.332C65.829 10.4227 66.5183 9.71133 67.3983 9.198C68.2783 8.67 69.261 8.406 70.3463 8.406C71.109 8.406 71.8203 8.56 72.4803 8.868C73.155 9.176 73.7416 9.60867 74.2403 10.166C74.2696 7.79 74.2843 6.10333 74.2843 5.106C74.3136 2.53933 74.3283 1.24867 74.3283 1.234C74.3283 0.999333 74.409 0.801333 74.5703 0.639999C74.7463 0.463999 74.9516 0.376 75.1863 0.376C75.4503 0.376 75.663 0.456666 75.8243 0.617999C76.0003 0.779332 76.0883 0.984665 76.0883 1.234C76.059 3.038 76.0003 8.36933 75.9123 17.228C75.9123 17.5067 75.971 17.8 76.0883 18.108C76.2056 18.416 76.345 18.6213 76.5063 18.724ZM70.3463 18.548C71.0796 18.548 71.7323 18.372 72.3043 18.02C72.891 17.668 73.3456 17.1693 73.6683 16.524C74.0056 15.8787 74.1743 15.1453 74.1743 14.324C74.1743 13.5467 74.0056 12.8427 73.6683 12.212C73.3456 11.5813 72.891 11.09 72.3043 10.738C71.7323 10.3713 71.087 10.188 70.3683 10.188C69.6056 10.188 68.9163 10.3713 68.3003 10.738C67.699 11.09 67.2223 11.5813 66.8703 12.212C66.5183 12.8427 66.3423 13.554 66.3423 14.346C66.3423 15.1673 66.511 15.9007 66.8483 16.546C67.2003 17.1767 67.677 17.668 68.2783 18.02C68.8943 18.372 69.5836 18.548 70.3463 18.548ZM88.9193 17.272C89.154 17.272 89.3446 17.3527 89.4913 17.514C89.638 17.6607 89.7113 17.844 89.7113 18.064C89.7113 18.3427 89.638 18.5627 89.4913 18.724C89.0366 19.252 88.384 19.67 87.5333 19.978C86.6826 20.286 85.766 20.44 84.7833 20.44C83.698 20.44 82.7153 20.198 81.8353 19.714C80.97 19.23 80.288 18.5553 79.7893 17.69C79.2906 16.8247 79.0413 15.8493 79.0413 14.764C79.0413 13.62 79.298 12.5787 79.8113 11.64C80.3246 10.7013 81.0213 9.968 81.9013 9.44C82.796 8.89733 83.7786 8.626 84.8493 8.626C85.7293 8.626 86.514 8.77267 87.2033 9.066C87.9073 9.35933 88.4573 9.77 88.8533 10.298C89.2493 10.826 89.4473 11.4127 89.4473 12.058C89.4473 12.982 89.0293 13.73 88.1933 14.302C87.3573 14.8593 86.2573 15.138 84.8933 15.138C84.1013 15.138 83.3533 15.0427 82.6493 14.852C81.9453 14.6613 81.344 14.3973 80.8453 14.06C80.816 14.412 80.8013 14.676 80.8013 14.852C80.8013 15.996 81.168 16.92 81.9013 17.624C82.6493 18.328 83.61 18.68 84.7833 18.68C86.3673 18.68 87.504 18.2987 88.1933 17.536C88.3986 17.36 88.6406 17.272 88.9193 17.272ZM84.8493 10.386C84.0573 10.386 83.3533 10.5693 82.7373 10.936C82.1213 11.288 81.6446 11.8013 81.3073 12.476C81.7326 12.784 82.2533 13.0407 82.8693 13.246C83.4853 13.4513 84.16 13.554 84.8933 13.554C85.7293 13.554 86.404 13.422 86.9173 13.158C87.4306 12.894 87.6873 12.5567 87.6873 12.146C87.6873 11.6473 87.416 11.2293 86.8733 10.892C86.3453 10.5547 85.6706 10.386 84.8493 10.386ZM101.643 8.626C101.893 8.626 102.098 8.714 102.259 8.89C102.435 9.066 102.523 9.264 102.523 9.484C102.523 9.616 102.501 9.748 102.457 9.88L97.7272 20.066C97.5365 20.4473 97.2799 20.638 96.9572 20.638C96.8105 20.638 96.6712 20.5867 96.5392 20.484C96.4072 20.3813 96.2972 20.2347 96.2092 20.044L91.6112 9.88C91.5672 9.748 91.5452 9.62333 91.5452 9.506C91.5452 9.25667 91.6259 9.05133 91.7872 8.89C91.9632 8.72867 92.1759 8.648 92.4252 8.648C92.5865 8.648 92.7405 8.69933 92.8872 8.802C93.0339 8.89 93.1439 9.01467 93.2172 9.176L97.0232 17.778L100.851 9.154C100.925 8.99267 101.035 8.868 101.181 8.78C101.328 8.67733 101.482 8.626 101.643 8.626Z" fill="current"/>
</svg>
